<svg id="communication" xmlns="http://www.w3.org/2000/svg" width="23.207" height="23.207" viewBox="0 0 23.207 23.207">
  <path id="Caminho_1360" data-name="Caminho 1360" d="M7.43,150.381a3.626,3.626,0,1,0-4.707,0A5.081,5.081,0,0,0,0,154.878v4.37a.725.725,0,0,0,.5.688,14.486,14.486,0,0,0,9.161,0,.725.725,0,0,0,.5-.688v-4.37A5.081,5.081,0,0,0,7.43,150.381ZM2.9,147.626A2.176,2.176,0,1,1,5.077,149.8,2.178,2.178,0,0,1,2.9,147.626Zm5.8,11.089a13.138,13.138,0,0,1-7.252,0v-3.837a3.626,3.626,0,1,1,7.252,0Z" transform="translate(0 -137.473)" fill="#727272"/>
  <path id="Caminho_1361" data-name="Caminho 1361" d="M295.43,150.381a3.626,3.626,0,1,0-4.707,0,5.081,5.081,0,0,0-2.723,4.5v4.37a.725.725,0,0,0,.5.688,14.486,14.486,0,0,0,9.161,0,.725.725,0,0,0,.5-.688v-4.37A5.081,5.081,0,0,0,295.43,150.381Zm-4.529-2.755a2.176,2.176,0,1,1,2.176,2.176A2.178,2.178,0,0,1,290.9,147.626Zm5.8,11.089a13.138,13.138,0,0,1-7.252,0v-3.837a3.626,3.626,0,1,1,7.252,0Z" transform="translate(-274.946 -137.473)" fill="#727272"/>
  <path id="Caminho_1362" data-name="Caminho 1362" d="M163.567,3.044a.723.723,0,0,1-.513-.213,4.713,4.713,0,0,0-6.666,0,.725.725,0,1,1-1.026-1.025,6.164,6.164,0,0,1,8.718,0,.725.725,0,0,1-.513,1.238Z" transform="translate(-148.118 0)" fill="#727272"/>
  <path id="Caminho_1363" data-name="Caminho 1363" d="M199.568,58.3a.723.723,0,0,1-.513-.212,2.177,2.177,0,0,0-3.077,0,.725.725,0,0,1-1.026-1.026,3.627,3.627,0,0,1,5.129,0,.725.725,0,0,1-.513,1.238Z" transform="translate(-185.913 -53.462)" fill="#727272"/>
  <path id="Caminho_1364" data-name="Caminho 1364" d="M233.088,130.176a1.088,1.088,0,1,1,1.088-1.088A1.089,1.089,0,0,1,233.088,130.176Z" transform="translate(-221.484 -122.198)" fill="#727272"/>
</svg>
