<svg xmlns="http://www.w3.org/2000/svg" width="34.975" height="34.906" viewBox="0 0 34.975 34.906">
  <g id="Connect_1_" transform="translate(0 0)">
    <g id="Grupo_651" data-name="Grupo 651" transform="translate(0 0)">
      <g id="Grupo_648" data-name="Grupo 648" transform="translate(12.364 0)">
        <path id="Caminho_1270" data-name="Caminho 1270" d="M186.123,10.746a5.123,5.123,0,1,1,5.123-5.123A5.129,5.129,0,0,1,186.123,10.746Z" transform="translate(-181 -0.5)" fill="#727272"/>
      </g>
      <g id="Grupo_649" data-name="Grupo 649" transform="translate(0 21.583)">
        <path id="Caminho_1271" data-name="Caminho 1271" d="M.685,324.143a5.124,5.124,0,1,1,7,1.875,5.13,5.13,0,0,1-7-1.875Z" transform="translate(0 -316.455)" fill="#727272"/>
      </g>
      <g id="Grupo_650" data-name="Grupo 650" transform="translate(24.727 21.583)">
        <path id="Caminho_1272" data-name="Caminho 1272" d="M364.55,326.018a5.123,5.123,0,1,1,7-1.875A5.122,5.122,0,0,1,364.55,326.018Z" transform="translate(-361.987 -316.455)" fill="#727272"/>
      </g>
    </g>
    <g id="Grupo_652" data-name="Grupo 652" transform="translate(2.142 6.675)">
      <path id="Caminho_1273" data-name="Caminho 1273" d="M33.4,110.339l-2.045-.112a15.427,15.427,0,0,1,6.926-12L39.4,99.936A13.377,13.377,0,0,0,33.4,110.339Z" transform="translate(-31.352 -98.223)" fill="#727272"/>
    </g>
    <g id="Grupo_653" data-name="Grupo 653" transform="translate(24.782 6.675)">
      <path id="Caminho_1274" data-name="Caminho 1274" d="M368.793,110.34a13.377,13.377,0,0,0-6.006-10.4l1.125-1.713a15.427,15.427,0,0,1,6.926,12Z" transform="translate(-362.787 -98.224)" fill="#727272"/>
    </g>
    <g id="Grupo_654" data-name="Grupo 654" transform="translate(10.559 31.431)">
      <path id="Caminho_1275" data-name="Caminho 1275" d="M161.5,464.1a15.22,15.22,0,0,1-6.928-1.646l.925-1.829a13.4,13.4,0,0,0,12.008,0l.925,1.829A15.22,15.22,0,0,1,161.5,464.1Z" transform="translate(-154.574 -460.626)" fill="#727272"/>
    </g>
  </g>
</svg>
