<svg xmlns="http://www.w3.org/2000/svg" width="28.626" height="29.749" viewBox="0 0 28.626 29.749">
  <g id="cosmetic" transform="translate(0 0)">
    <g id="Grupo_717" data-name="Grupo 717" transform="translate(0 12.512)">
      <g id="Grupo_716" data-name="Grupo 716">
        <path id="Caminho_1344" data-name="Caminho 1344" d="M30.005,215.35l-.269,1.089a4,4,0,0,1,1.166.428c-.574.373-3.131,1.119-10.012,1.119s-9.438-.746-10.012-1.12a4.1,4.1,0,0,1,1.192-.433l-.268-1.09c-.918.225-2.138.628-2.138,1.521,0,1.856,6.1,2.245,11.226,2.245s11.226-.39,11.226-2.245C32.116,215.976,30.911,215.574,30.005,215.35Z" transform="translate(-9.664 -215.343)" fill="#727272"/>
      </g>
    </g>
    <g id="Grupo_719" data-name="Grupo 719" transform="translate(21.329 14.032)">
      <g id="Grupo_718" data-name="Grupo 718">
        <rect id="Retângulo_2031" data-name="Retângulo 2031" width="1.123" height="8.981" fill="#727272"/>
      </g>
    </g>
    <g id="Grupo_721" data-name="Grupo 721" transform="translate(0 14.033)">
      <g id="Grupo_720" data-name="Grupo 720" transform="translate(0)">
        <path id="Caminho_1345" data-name="Caminho 1345" d="M10.787,251.545V241.513H9.664v10.1c0,.465,0,1.7,6.79,2.121l.069-1.12C11.886,252.329,10.935,251.678,10.787,251.545Z" transform="translate(-9.664 -241.513)" fill="#727272"/>
      </g>
    </g>
    <g id="Grupo_723" data-name="Grupo 723" transform="translate(6.174 22.452)">
      <g id="Grupo_722" data-name="Grupo 722">
        <path id="Caminho_1346" data-name="Caminho 1346" d="M127.152,386.416c-1.875,0-11.226.108-11.226,2.245s9.351,2.245,11.226,2.245,11.226-.108,11.226-2.245S129.027,386.416,127.152,386.416Zm0,3.368c-5.36,0-9.041-.622-9.957-1.123.916-.5,4.6-1.123,9.957-1.123s9.041.622,9.957,1.123C136.193,389.162,132.513,389.784,127.153,389.784Z" transform="translate(-115.926 -386.416)" fill="#727272"/>
      </g>
    </g>
    <g id="Grupo_725" data-name="Grupo 725" transform="translate(6.174 24.698)">
      <g id="Grupo_724" data-name="Grupo 724" transform="translate(0)">
        <path id="Caminho_1347" data-name="Caminho 1347" d="M137.256,425.057V427.8c-.333.337-2.748,1.19-10.1,1.19s-9.771-.853-10.1-1.19v-2.739h-1.123v2.806c0,1.856,6.1,2.245,11.226,2.245s11.226-.39,11.226-2.245v-2.806Z" transform="translate(-115.927 -425.057)" fill="#727272"/>
      </g>
    </g>
    <g id="Grupo_727" data-name="Grupo 727" transform="translate(2.245 16.789)">
      <g id="Grupo_726" data-name="Grupo 726" transform="translate(0)">
        <path id="Caminho_1348" data-name="Caminho 1348" d="M66.072,289.084a.568.568,0,0,0-.451-.129,48.627,48.627,0,0,1-8.346.548,48.558,48.558,0,0,1-8.323-.548.561.561,0,0,0-.647.555v5.527a.562.562,0,0,0,.454.551,34.651,34.651,0,0,0,6.605.637l.241,0L55.6,295.1a33.66,33.66,0,0,1-6.17-.529V290.16a49.682,49.682,0,0,0,7.847.466,50.07,50.07,0,0,0,7.869-.466v4.425l-.191.035.2,1.105c.266-.048.493-.1.684-.143a.562.562,0,0,0,.43-.546v-5.526A.565.565,0,0,0,66.072,289.084Z" transform="translate(-48.305 -288.949)" fill="#727272"/>
      </g>
    </g>
    <g id="Grupo_729" data-name="Grupo 729" transform="translate(1.684 9.543)">
      <g id="Grupo_728" data-name="Grupo 728">
        <path id="Caminho_1349" data-name="Caminho 1349" d="M42.574,164.232a3.933,3.933,0,0,0-3.929,3.929v1.684h1.123v-1.684a2.81,2.81,0,0,1,2.806-2.806H46.5v-1.123Z" transform="translate(-38.645 -164.232)" fill="#727272"/>
      </g>
    </g>
    <g id="Grupo_731" data-name="Grupo 731" transform="translate(14.594 9.543)">
      <g id="Grupo_730" data-name="Grupo 730">
        <path id="Caminho_1350" data-name="Caminho 1350" d="M263.074,164.232h-2.245v1.123h2.245a2.81,2.81,0,0,1,2.807,2.806v1.684H267v-1.684A3.934,3.934,0,0,0,263.074,164.232Z" transform="translate(-260.829 -164.232)" fill="#727272"/>
      </g>
    </g>
    <g id="Grupo_733" data-name="Grupo 733" transform="translate(4.49 0)">
      <g id="Grupo_732" data-name="Grupo 732" transform="translate(0 0)">
        <path id="Caminho_1351" data-name="Caminho 1351" d="M95.959,3.036a.606.606,0,0,0-.056-.024L95.2,2.75c-.019-.007-.039-.013-.059-.018a6.436,6.436,0,0,1-2.988-1.689L91.273.167a.561.561,0,0,0-.958.4v.842A3.942,3.942,0,0,0,91.5,4.221,1.723,1.723,0,0,1,92,5.463a.713.713,0,0,1-.713.713h-.41a3.933,3.933,0,0,0-3.929,3.929H88.07A2.81,2.81,0,0,1,90.876,7.3h.41a1.844,1.844,0,0,0,1.835-1.864A2.842,2.842,0,0,0,92.266,3.4a2.844,2.844,0,0,1-.77-1.431,7.55,7.55,0,0,0,3.338,1.84l.649.241A2.867,2.867,0,0,1,97.05,6.621v.117H95.366V7.86h2.245a.561.561,0,0,0,.561-.561V6.621A3.984,3.984,0,0,0,95.959,3.036Z" transform="translate(-86.947 -0.002)" fill="#727272"/>
      </g>
    </g>
    <g id="Grupo_735" data-name="Grupo 735" transform="translate(12.91 6.736)">
      <g id="Grupo_734" data-name="Grupo 734">
        <path id="Caminho_1352" data-name="Caminho 1352" d="M232.972,115.931h-1.123v1.123h1.123a2.248,2.248,0,0,1,2.245,2.245h1.123A3.371,3.371,0,0,0,232.972,115.931Z" transform="translate(-231.849 -115.931)" fill="#727272"/>
      </g>
    </g>
  </g>
</svg>
