<svg xmlns="http://www.w3.org/2000/svg" width="25.981" height="25.981" viewBox="0 0 25.981 25.981">
  <g id="credit-card-payment" transform="translate(0 0)">
    <path id="Caminho_1338" data-name="Caminho 1338" d="M25.314,8.441,17.541.668a2.286,2.286,0,0,0-3.23,0L4.557,10.422H2.284A2.286,2.286,0,0,0,0,12.705V23.7a2.286,2.286,0,0,0,2.284,2.284H19.772A2.286,2.286,0,0,0,22.056,23.7v-8.77l3.258-3.258A2.286,2.286,0,0,0,25.314,8.441Zm-9.926-6.7a.762.762,0,0,1,1.076,0L20.469,5.75,15.8,10.422H6.71ZM20.533,23.7a.762.762,0,0,1-.761.761H2.284a.762.762,0,0,1-.761-.761V12.705a.762.762,0,0,1,.761-.761H19.772a.762.762,0,0,1,.761.761Zm-.451-13.255a2.294,2.294,0,0,0-.31-.022H17.95l3.6-3.6L22.622,7.9Zm4.155.151-2.181,2.181v-.07a2.274,2.274,0,0,0-.573-1.51L23.7,8.979l.538.538a.762.762,0,0,1,0,1.077Z" transform="translate(0 0)" fill="#727272"/>
    <path id="Caminho_1339" data-name="Caminho 1339" d="M60,406.574h2.833V408.1H60Z" transform="translate(-56.955 -385.942)" fill="#727272"/>
    <path id="Caminho_1340" data-name="Caminho 1340" d="M146.267,406.574H149.1V408.1h-2.833Z" transform="translate(-138.844 -385.942)" fill="#727272"/>
    <path id="Caminho_1341" data-name="Caminho 1341" d="M232.534,406.574h2.833V408.1h-2.833Z" transform="translate(-220.734 -385.942)" fill="#727272"/>
    <path id="Caminho_1342" data-name="Caminho 1342" d="M318.8,406.574h2.833V408.1H318.8Z" transform="translate(-302.623 -385.942)" fill="#727272"/>
    <path id="Caminho_1343" data-name="Caminho 1343" d="M65.139,280.766H60v4.567h5.139Zm-1.522,3.045H61.522v-1.522h2.094Z" transform="translate(-56.955 -266.518)" fill="#727272"/>
  </g>
</svg>
