<svg id="dots-menu" xmlns="http://www.w3.org/2000/svg" width="23.305" height="22.888" viewBox="0 0 23.305 22.888">
  <g id="Grupo_655" data-name="Grupo 655" transform="translate(0 0)">
    <path id="Caminho_1276" data-name="Caminho 1276" d="M3.575,2.471A2.725,2.725,0,1,0,6.3,5.2,2.728,2.728,0,0,0,3.575,2.471Z" transform="translate(-0.778 -2.471)" fill="#727272"/>
    <path id="Caminho_1277" data-name="Caminho 1277" d="M108.094,2.471A2.725,2.725,0,1,0,110.82,5.2,2.728,2.728,0,0,0,108.094,2.471Z" transform="translate(-96.477 -2.471)" fill="#727272"/>
    <path id="Caminho_1278" data-name="Caminho 1278" d="M214.3,7.921A2.725,2.725,0,1,0,211.579,5.2,2.728,2.728,0,0,0,214.3,7.921Z" transform="translate(-193.724 -2.471)" fill="#727272"/>
    <path id="Caminho_1279" data-name="Caminho 1279" d="M2.726,111.4A2.725,2.725,0,1,0,0,108.674,2.728,2.728,0,0,0,2.726,111.4Z" transform="translate(0 -97.217)" fill="#727272"/>
    <path id="Caminho_1280" data-name="Caminho 1280" d="M107.25,111.4a2.725,2.725,0,1,0-2.725-2.725A2.728,2.728,0,0,0,107.25,111.4Z" transform="translate(-95.704 -97.217)" fill="#727272"/>
    <path id="Caminho_1281" data-name="Caminho 1281" d="M213.458,111.4a2.725,2.725,0,1,0-2.726-2.725A2.728,2.728,0,0,0,213.458,111.4Z" transform="translate(-192.949 -97.217)" fill="#727272"/>
    <path id="Caminho_1282" data-name="Caminho 1282" d="M3.465,209.108a2.725,2.725,0,1,0,2.725,2.725A2.729,2.729,0,0,0,3.465,209.108Z" transform="translate(-0.677 -191.67)" fill="#727272"/>
    <path id="Caminho_1283" data-name="Caminho 1283" d="M107.99,209.108a2.725,2.725,0,1,0,2.725,2.725A2.728,2.728,0,0,0,107.99,209.108Z" transform="translate(-96.381 -191.67)" fill="#727272"/>
    <path id="Caminho_1284" data-name="Caminho 1284" d="M214.2,209.108a2.725,2.725,0,1,0,2.725,2.725A2.728,2.728,0,0,0,214.2,209.108Z" transform="translate(-193.631 -191.67)" fill="#727272"/>
  </g>
</svg>
