<svg id="edit" xmlns="http://www.w3.org/2000/svg" width="26.885" height="26.884" viewBox="0 0 26.885 26.884">
  <path id="Caminho_1334" data-name="Caminho 1334" d="M21.284,94.778a1.12,1.12,0,0,0-1.12,1.12v8.962a1.121,1.121,0,0,1-1.12,1.12H3.361a1.121,1.121,0,0,1-1.12-1.12V89.177a1.121,1.121,0,0,1,1.12-1.12h8.962a1.12,1.12,0,0,0,0-2.241H3.361A3.365,3.365,0,0,0,0,89.177V104.86a3.365,3.365,0,0,0,3.361,3.361H19.044A3.365,3.365,0,0,0,22.4,104.86V95.9a1.119,1.119,0,0,0-1.12-1.12Zm0,0" transform="translate(0 -81.336)" fill="#727272"/>
  <path id="Caminho_1335" data-name="Caminho 1335" d="M182.765,77.125a.566.566,0,0,0-.153.286l-.792,3.961a.56.56,0,0,0,.55.67.532.532,0,0,0,.11-.011l3.96-.792a.558.558,0,0,0,.287-.154l8.863-8.863-3.96-3.96Zm0,0" transform="translate(-172.262 -64.704)" fill="#727272"/>
  <path id="Caminho_1336" data-name="Caminho 1336" d="M396.956,1.32a2.8,2.8,0,0,0-3.96,0l-1.55,1.55,3.96,3.96,1.55-1.55a2.8,2.8,0,0,0,0-3.96Zm0,0" transform="translate(-370.891 -0.501)" fill="#727272"/>
</svg>
