<svg xmlns="http://www.w3.org/2000/svg" width="27.388" height="20.062" viewBox="0 0 27.388 20.062">
  <g id="email" transform="translate(0 0)">
    <path id="Caminho_1337" data-name="Caminho 1337" d="M23.927,24.61H3.461A3.465,3.465,0,0,0,0,28.071V41.21a3.465,3.465,0,0,0,3.461,3.461H23.927a3.465,3.465,0,0,0,3.461-3.461V28.071A3.465,3.465,0,0,0,23.927,24.61Zm-.541,2.233L13.694,34.33,4,26.843Zm.541,15.6H3.461a1.23,1.23,0,0,1-1.229-1.229V28.3l10.779,8.327a1.117,1.117,0,0,0,1.365,0L25.155,28.3V41.21A1.23,1.23,0,0,1,23.927,42.439Z" transform="translate(0 -24.61)" fill="#727272"/>
  </g>
</svg>
