<svg xmlns="http://www.w3.org/2000/svg" width="23.323" height="27.456" viewBox="0 0 23.323 27.456">
  <g id="health-insurance" transform="translate(0 0)">
    <path id="Caminho_1358" data-name="Caminho 1358" d="M61.837,7.446V7.42c-.013-.684-.025-1.331-.025-1.953A1.711,1.711,0,0,0,60.1,3.758,11.715,11.715,0,0,1,51.394.487a1.7,1.7,0,0,0-2.383,0A11.713,11.713,0,0,1,40.3,3.758,1.711,1.711,0,0,0,38.6,5.467c0,.635-.012,1.288-.026,1.98-.062,3.228-.138,7.245,1.21,10.891a13.845,13.845,0,0,0,3.336,5.179,17.432,17.432,0,0,0,6.528,3.844,1.707,1.707,0,0,0,1.119,0,17.435,17.435,0,0,0,6.528-3.844,13.845,13.845,0,0,0,3.336-5.179C61.975,14.691,61.9,10.674,61.837,7.446ZM59.118,17.78c-1.422,3.845-4.327,6.482-8.883,8.061a.1.1,0,0,1-.065,0c-4.555-1.579-7.46-4.216-8.882-8.061-1.243-3.362-1.172-7.049-1.11-10.3.013-.7.026-1.36.026-2.01a.1.1,0,0,1,.1-.1A13.227,13.227,0,0,0,50.133,1.64a.1.1,0,0,1,.14,0A13.229,13.229,0,0,0,60.1,5.367a.1.1,0,0,1,.1.1c0,.637.012,1.291.026,1.984v.026h0c.062,3.254.133,6.941-1.11,10.3Z" transform="translate(-38.542 0)" fill="#727272"/>
    <path id="Caminho_1359" data-name="Caminho 1359" d="M158.629,146.239h-2.588v-2.588a.8.8,0,0,0-.8-.8h-3.21a.8.8,0,0,0-.8.8v2.588h-2.588a.8.8,0,0,0-.8.8v3.21a.8.8,0,0,0,.8.8h2.588v2.588a.8.8,0,0,0,.8.8h3.21a.8.8,0,0,0,.8-.8v-2.588h2.588a.8.8,0,0,0,.8-.8v-3.21A.8.8,0,0,0,158.629,146.239Zm-.8,3.21h-2.588a.8.8,0,0,0-.8.8v2.588h-1.6v-2.588a.8.8,0,0,0-.8-.8h-2.588v-1.6h2.588a.8.8,0,0,0,.8-.8v-2.588h1.6v2.588a.8.8,0,0,0,.8.8h2.588v1.6Z" transform="translate(-141.97 -135.188)" fill="#727272"/>
  </g>
</svg>
