<svg xmlns="http://www.w3.org/2000/svg" width="28.388" height="27.061" viewBox="0 0 28.388 27.061">
  <g id="home_2_" data-name="home (2)" transform="translate(0 0)">
    <g id="Grupo_633" data-name="Grupo 633" transform="translate(0 0)">
      <path id="Caminho_1262" data-name="Caminho 1262" d="M14.194,11.96,0,24.286l1.453,1.673,1.329-1.154V35.7a3.328,3.328,0,0,0,3.324,3.324h6.2V28.163h3.878V39.021h6.094A3.328,3.328,0,0,0,25.606,35.7V24.805l1.329,1.154,1.453-1.673ZM23.39,35.7a1.109,1.109,0,0,1-1.108,1.108H18.4V25.947h-8.31V36.805H6.106A1.109,1.109,0,0,1,5,35.7V22.881l9.2-7.986,9.2,7.986Z" transform="translate(0 -11.96)" fill="#727272"/>
    </g>
  </g>
</svg>
