<svg id="information_1_" data-name="information (1)" xmlns="http://www.w3.org/2000/svg" width="26.079" height="26.079" viewBox="0 0 26.079 26.079">
  <g id="Grupo_657" data-name="Grupo 657">
    <g id="Grupo_656" data-name="Grupo 656">
      <ellipse id="Elipse_156" data-name="Elipse 156" cx="1.273" cy="1.273" rx="1.273" ry="1.273" transform="translate(11.766 18.006)" fill="#727272"/>
      <path id="Caminho_1295" data-name="Caminho 1295" d="M13.04,0a13.04,13.04,0,1,0,13.04,13.04A13.032,13.032,0,0,0,13.04,0Zm0,24.042a11,11,0,1,1,11-11A11,11,0,0,1,13.04,24.042Z" fill="#727272"/>
      <path id="Caminho_1296" data-name="Caminho 1296" d="M180.075,128.5A4.079,4.079,0,0,0,176,132.575a1.019,1.019,0,0,0,2.037,0,2.037,2.037,0,1,1,2.037,2.037,1.019,1.019,0,0,0-1.019,1.019v2.547a1.019,1.019,0,0,0,2.037,0v-1.657a4.075,4.075,0,0,0-1.019-8.021Z" transform="translate(-167.035 -121.955)" fill="#727272"/>
    </g>
  </g>
</svg>
