<svg id="list_2_" data-name="list (2)" xmlns="http://www.w3.org/2000/svg" width="24.545" height="24.545" viewBox="0 0 24.545 24.545">
  <g id="Grupo_659" data-name="Grupo 659">
    <g id="Grupo_658" data-name="Grupo 658">
      <path id="Caminho_1297" data-name="Caminho 1297" d="M21.477,0H3.068A3.072,3.072,0,0,0,0,3.068V21.477a3.072,3.072,0,0,0,3.068,3.068H21.477a3.072,3.072,0,0,0,3.068-3.068V3.068A3.072,3.072,0,0,0,21.477,0ZM22.5,21.477A1.024,1.024,0,0,1,21.477,22.5H3.068a1.024,1.024,0,0,1-1.023-1.023V3.068A1.024,1.024,0,0,1,3.068,2.045H21.477A1.024,1.024,0,0,1,22.5,3.068Z" fill="#727272"/>
    </g>
  </g>
  <g id="Grupo_661" data-name="Grupo 661" transform="translate(5.114 5.114)">
    <g id="Grupo_660" data-name="Grupo 660">
      <path id="Caminho_1298" data-name="Caminho 1298" d="M108.631,107.3a1.056,1.056,0,0,0-.215-.337l-.153-.123a.775.775,0,0,0-.184-.092.649.649,0,0,0-.184-.061.978.978,0,0,0-.593.061,1.18,1.18,0,0,0-.337.215,1.056,1.056,0,0,0-.215.337.964.964,0,0,0,0,.777,1.056,1.056,0,0,0,.215.337,1.075,1.075,0,0,0,.726.3,1.531,1.531,0,0,0,.2-.02.65.65,0,0,0,.184-.061.776.776,0,0,0,.184-.092l.153-.123a1.075,1.075,0,0,0,.3-.726A1.021,1.021,0,0,0,108.631,107.3Z" transform="translate(-106.667 -106.666)" fill="#727272"/>
    </g>
  </g>
  <g id="Grupo_663" data-name="Grupo 663" transform="translate(9.204 5.114)">
    <g id="Grupo_662" data-name="Grupo 662">
      <path id="Caminho_1299" data-name="Caminho 1299" d="M201.2,106.667h-8.182a1.023,1.023,0,1,0,0,2.045H201.2a1.023,1.023,0,1,0,0-2.045Z" transform="translate(-192 -106.667)" fill="#727272"/>
    </g>
  </g>
  <g id="Grupo_665" data-name="Grupo 665" transform="translate(5.114 11.255)">
    <g id="Grupo_664" data-name="Grupo 664">
      <path id="Caminho_1300" data-name="Caminho 1300" d="M108.692,235.586a.649.649,0,0,0-.061-.184.777.777,0,0,0-.092-.184l-.123-.153a1.18,1.18,0,0,0-.337-.215,1.023,1.023,0,0,0-.777,0,1.18,1.18,0,0,0-.337.215l-.123.153a.776.776,0,0,0-.092.184.649.649,0,0,0-.061.184,1.538,1.538,0,0,0-.02.2,1.023,1.023,0,1,0,2.045,0A1.557,1.557,0,0,0,108.692,235.586Z" transform="translate(-106.667 -234.773)" fill="#727272"/>
    </g>
  </g>
  <g id="Grupo_667" data-name="Grupo 667" transform="translate(9.204 11.25)">
    <g id="Grupo_666" data-name="Grupo 666">
      <path id="Caminho_1301" data-name="Caminho 1301" d="M201.2,234.667h-8.182a1.023,1.023,0,1,0,0,2.045H201.2a1.023,1.023,0,1,0,0-2.045Z" transform="translate(-192 -234.667)" fill="#727272"/>
    </g>
  </g>
  <g id="Grupo_669" data-name="Grupo 669" transform="translate(5.114 17.394)">
    <g id="Grupo_668" data-name="Grupo 668">
      <path id="Caminho_1302" data-name="Caminho 1302" d="M108.631,363.453a.99.99,0,0,0-1.329-.552.922.922,0,0,0-.552.552,1.022,1.022,0,1,0,1.964.389A.859.859,0,0,0,108.631,363.453Z" transform="translate(-106.667 -362.827)" fill="#727272"/>
    </g>
  </g>
  <g id="Grupo_671" data-name="Grupo 671" transform="translate(9.204 17.386)">
    <g id="Grupo_670" data-name="Grupo 670">
      <path id="Caminho_1303" data-name="Caminho 1303" d="M201.2,362.667h-8.182a1.023,1.023,0,1,0,0,2.045H201.2a1.023,1.023,0,1,0,0-2.045Z" transform="translate(-192 -362.667)" fill="#727272"/>
    </g>
  </g>
</svg>
