<svg id="online-shopping" xmlns="http://www.w3.org/2000/svg" width="26.753" height="29.02" viewBox="0 0 26.753 29.02">
  <path id="Caminho_1294" data-name="Caminho 1294" d="M45.619,10.183h-3.39a5.836,5.836,0,0,0-4.675-5.535V1.134A1.134,1.134,0,0,0,36.421,0H21.134A1.134,1.134,0,0,0,20,1.134V27.886a1.134,1.134,0,0,0,1.134,1.134H45.619a1.134,1.134,0,0,0,1.134-1.134V11.317a1.134,1.134,0,0,0-1.134-1.134Zm-5.658,0H32.853a3.558,3.558,0,0,1,7.108,0Zm-13.9,1.134V26.753H22.267V2.267h2.219l1.579,1.579a1.133,1.133,0,0,0,.8.332h3.822a1.133,1.133,0,0,0,.8-.332l1.579-1.579h2.219V4.643a5.836,5.836,0,0,0-4.7,5.54h-3.39a1.134,1.134,0,0,0-1.134,1.134ZM44.486,26.753H28.328V12.45h2.253v3.4a1.134,1.134,0,1,0,2.267,0v-3.4h7.117v3.4a1.134,1.134,0,1,0,2.267,0v-3.4h2.253Z" transform="translate(-20 0)" fill="#727272"/>
</svg>
