<svg id="padlock" xmlns="http://www.w3.org/2000/svg" width="28.028" height="31.205" viewBox="0 0 28.028 31.205">
  <g id="Grupo_158" data-name="Grupo 158" transform="translate(0)">
    <g id="Grupo_157" data-name="Grupo 157">
      <path id="Caminho_35" data-name="Caminho 35" d="M75.906,11.458H73.431V6.446C73.431,2.892,70.1,0,66.012,0s-7.419,2.892-7.419,6.446v5.012H56.122A3.915,3.915,0,0,0,52,15.115V27.548A3.915,3.915,0,0,0,56.122,31.2H75.906a3.915,3.915,0,0,0,4.122-3.657V15.115A3.915,3.915,0,0,0,75.906,11.458ZM61.34,6.446c0-2.21,2.1-4.008,4.671-4.008s4.671,1.8,4.671,4.008v5.012H61.34Zm15.94,21.1a1.3,1.3,0,0,1-1.374,1.219H56.122a1.3,1.3,0,0,1-1.374-1.219V15.115A1.3,1.3,0,0,1,56.122,13.9H75.906a1.3,1.3,0,0,1,1.374,1.219Z" transform="translate(-52 0)" fill="#727272"/>
    </g>
  </g>
  <g id="Grupo_160" data-name="Grupo 160" transform="translate(11.327 16.27)">
    <g id="Grupo_159" data-name="Grupo 159">
      <path id="Caminho_36" data-name="Caminho 36" d="M221.687,286a2.687,2.687,0,0,0-1.455,4.946v3.188a1.453,1.453,0,1,0,2.905,0v-3.185a2.687,2.687,0,0,0-1.45-4.949Z" transform="translate(-219 -286)" fill="#727272"/>
    </g>
  </g>
</svg>
