<svg xmlns="http://www.w3.org/2000/svg" width="25.559" height="31.592" viewBox="0 0 25.559 31.592">
  <g id="place" transform="translate(0 0)">
    <g id="Grupo_713" data-name="Grupo 713" transform="translate(0 0)">
      <g id="Grupo_712" data-name="Grupo 712">
        <path id="Caminho_1332" data-name="Caminho 1332" d="M72.152,5.493a12.756,12.756,0,0,0-20.972,0,12.758,12.758,0,0,0-1.485,11.754A10.047,10.047,0,0,0,51.546,20.3l9.279,10.9a1.1,1.1,0,0,0,1.682,0l9.276-10.9a10.057,10.057,0,0,0,1.851-3.053A12.76,12.76,0,0,0,72.152,5.493ZM71.566,16.48a7.88,7.88,0,0,1-1.457,2.387l-.005.006-8.438,9.911-8.443-9.917a7.884,7.884,0,0,1-1.46-2.394A10.553,10.553,0,0,1,53,6.749a10.546,10.546,0,0,1,17.338,0A10.555,10.555,0,0,1,71.566,16.48Z" transform="translate(-48.886)" fill="#727272"/>
      </g>
    </g>
    <g id="Grupo_715" data-name="Grupo 715" transform="translate(6.594 6.554)">
      <g id="Grupo_714" data-name="Grupo 714">
        <path id="Caminho_1333" data-name="Caminho 1333" d="M161.94,106.219a6.186,6.186,0,1,0,6.186,6.186A6.193,6.193,0,0,0,161.94,106.219Zm0,10.162a3.977,3.977,0,1,1,3.977-3.977A3.981,3.981,0,0,1,161.94,116.381Z" transform="translate(-155.754 -106.219)" fill="#727272"/>
      </g>
    </g>
  </g>
</svg>
