<svg xmlns="http://www.w3.org/2000/svg" width="29.379" height="22.45" viewBox="0 0 29.379 22.45">
  <g id="restaurant_2_" data-name="restaurant (2)" transform="translate(0 0)">
    <g id="Grupo_737" data-name="Grupo 737" transform="translate(6.012 3.349)">
      <g id="Grupo_736" data-name="Grupo 736" transform="translate(0 0)">
        <path id="Caminho_1353" data-name="Caminho 1353" d="M113.461,118.741a8.7,8.7,0,1,0,8.7,8.7A8.705,8.705,0,0,0,113.461,118.741Zm0,16.243a7.548,7.548,0,1,1,7.548-7.548A7.556,7.556,0,0,1,113.461,134.984Z" transform="translate(-104.766 -118.741)" fill="#727272"/>
      </g>
    </g>
    <g id="Grupo_739" data-name="Grupo 739" transform="translate(8.846 6.183)">
      <g id="Grupo_738" data-name="Grupo 738" transform="translate(0 0)">
        <path id="Caminho_1354" data-name="Caminho 1354" d="M165.168,171.192a.574.574,0,0,0-.779-.229l-.027.017a.573.573,0,0,0-.2.762,4.707,4.707,0,1,1-3.4-2.4.573.573,0,0,0,.65-.446c0-.01,0-.02.007-.031a.574.574,0,0,0-.477-.657,5.859,5.859,0,1,0,4.224,2.984Z" transform="translate(-154.16 -168.136)" fill="#727272"/>
      </g>
    </g>
    <g id="Grupo_741" data-name="Grupo 741" transform="translate(17.394 7.081)">
      <g id="Grupo_740" data-name="Grupo 740" transform="translate(0 0)">
        <path id="Caminho_1355" data-name="Caminho 1355" d="M304.1,183.955a.54.54,0,0,0-.087-.071.565.565,0,0,0-.1-.053.582.582,0,0,0-.107-.033.569.569,0,0,0-.224,0,.593.593,0,0,0-.107.033.563.563,0,0,0-.258.211.553.553,0,0,0-.075.166c0,.013-.007.027-.01.04a.574.574,0,0,0-.011.112.582.582,0,0,0,.011.113.594.594,0,0,0,.033.107.583.583,0,0,0,.124.186.622.622,0,0,0,.088.072.575.575,0,0,0,.1.053.592.592,0,0,0,.107.033.571.571,0,0,0,.332-.033.564.564,0,0,0,.086-.045l.014-.008a.578.578,0,0,0,.087-.072.55.55,0,0,0,.071-.087.576.576,0,0,0,.053-.1.6.6,0,0,0,.033-.107.57.57,0,0,0-.157-.518Z" transform="translate(-303.121 -183.787)" fill="#727272"/>
      </g>
    </g>
    <g id="Grupo_743" data-name="Grupo 743" transform="translate(23.124 0.101)">
      <g id="Grupo_742" data-name="Grupo 742" transform="translate(0 0)">
        <path id="Caminho_1356" data-name="Caminho 1356" d="M409.229,82.3l-1.861-15.157a8.044,8.044,0,0,0-2.146-4.553l-.05-.053A1.265,1.265,0,0,0,403,63.558l2.359,19.214q.011.093.031.182a1.95,1.95,0,0,0,3.6.547q.047-.081.085-.167t.069-.176A1.938,1.938,0,0,0,409.229,82.3Zm-5.091-18.878a.106.106,0,0,1,.067-.121.13.13,0,0,1,.056-.014.108.108,0,0,1,.08.039l.05.053a6.894,6.894,0,0,1,1.84,3.9l.992,8.078-1.593.2Zm3.9,19.409a.8.8,0,0,1-1.544-.2l-.729-5.94,1.593-.2.729,5.94A.8.8,0,0,1,408.04,82.827Z" transform="translate(-402.988 -62.135)" fill="#727272"/>
      </g>
    </g>
    <g id="Grupo_745" data-name="Grupo 745" transform="translate(0 0)">
      <g id="Grupo_744" data-name="Grupo 744" transform="translate(0 0)">
        <path id="Caminho_1357" data-name="Caminho 1357" d="M7.076,61.031a.574.574,0,0,0-.639.5l-.522,4.25a1.367,1.367,0,0,1-1.279,1.2l-.38-.047.686-5.59a.574.574,0,1,0-1.139-.14L3.116,66.8l-.381-.047a1.367,1.367,0,0,1-.95-1.476l.522-4.25a.574.574,0,1,0-1.139-.14l-.522,4.25a2.508,2.508,0,0,0,1.328,2.539L.022,80.236v0a2,2,0,0,0,1.733,2.275h.01a2.036,2.036,0,0,0,.248.015A2,2,0,0,0,4,80.715L5.151,68.063a2.508,2.508,0,0,0,1.9-2.142l.522-4.25A.574.574,0,0,0,7.076,61.031ZM2.855,80.611a.85.85,0,0,1-.95.767h-.01a.85.85,0,0,1-.738-.966L3.093,67.951l.453.056h0L4,68.062Z" transform="translate(0 -60.38)" fill="#727272"/>
      </g>
    </g>
  </g>
</svg>
