<svg id="safe-box" xmlns="http://www.w3.org/2000/svg" width="26.079" height="22.921" viewBox="0 0 26.079 22.921">
  <path id="Caminho_1371" data-name="Caminho 1371" d="M25.315,31H.764A.764.764,0,0,0,0,31.764V50.1a.764.764,0,0,0,.764.764h.815v2.292a.764.764,0,0,0,.764.764H6.927a.764.764,0,0,0,.764-.764V50.865h10.7v2.292a.764.764,0,0,0,.764.764h4.584a.764.764,0,0,0,.764-.764V50.865h.815a.764.764,0,0,0,.764-.764V31.764A.764.764,0,0,0,25.315,31ZM5.4,37.112H4.635V35.584H21.444v10.7H4.635V44.753H5.4a.764.764,0,1,0,0-1.528H4.635V38.64H5.4a.764.764,0,1,0,0-1.528ZM3.107,43.225H1.528V38.64H3.107Zm3.056,9.168H3.107V50.865H6.163Zm16.809,0H19.916V50.865h3.056Zm1.579-3.056H1.528V44.753H3.107v2.292a.764.764,0,0,0,.764.764H22.208a.764.764,0,0,0,.764-.764V34.82a.764.764,0,0,0-.764-.764H3.871a.764.764,0,0,0-.764.764v2.292H1.528V32.528H24.551Z" transform="translate(0 -31)" fill="#727272"/>
  <path id="Caminho_1372" data-name="Caminho 1372" d="M154.82,158.64a3.82,3.82,0,1,0-3.82-3.82A3.825,3.825,0,0,0,154.82,158.64Zm0-6.112a2.292,2.292,0,1,1-2.292,2.292A2.295,2.295,0,0,1,154.82,152.528Z" transform="translate(-143.309 -144.888)" fill="#727272"/>
  <ellipse id="Elipse_184" data-name="Elipse 184" cx="0.767" cy="0.767" rx="0.767" ry="0.767" transform="translate(10.738 9.114)" fill="#727272"/>
  <ellipse id="Elipse_185" data-name="Elipse 185" cx="0.767" cy="0.767" rx="0.767" ry="0.767" transform="translate(16.875 7.58)" fill="#727272"/>
  <ellipse id="Elipse_186" data-name="Elipse 186" cx="0.767" cy="0.767" rx="0.767" ry="0.767" transform="translate(16.875 10.649)" fill="#727272"/>
</svg>
