<svg xmlns="http://www.w3.org/2000/svg" width="27.778" height="25.46" viewBox="0 0 27.778 25.46">
  <path id="shopping-cart_1_" data-name="shopping-cart (1)" d="M26.637,25.973H4.918l-.323-3.6a1.141,1.141,0,0,0-1.136-1.039H1.141a1.141,1.141,0,0,0,0,2.282H2.416c.7,7.762-1.1-12.3,1.312,14.618a4.389,4.389,0,0,0,1.643,2.974,3.458,3.458,0,1,0,5.976.951H17.59a3.459,3.459,0,1,0,3.252-2.282H8.1A2.119,2.119,0,0,1,6.154,38.6l18.231-1.071a1.141,1.141,0,0,0,1.04-.862l2.318-9.271a1.141,1.141,0,0,0-1.107-1.417ZM8.094,44.516a1.177,1.177,0,1,1,1.177-1.177A1.178,1.178,0,0,1,8.094,44.516Zm12.748,0a1.177,1.177,0,1,1,1.177-1.177A1.178,1.178,0,0,1,20.842,44.516Zm2.573-9.22L5.847,36.328l-.725-8.073H25.176Z" transform="translate(0 -21.338)" fill="#727272"/>
</svg>
