<svg xmlns="http://www.w3.org/2000/svg" width="21.988" height="32.983" viewBox="0 0 21.988 32.983">
  <path id="softdrinks" d="M105.895,24.939v5.354H97.649a.55.55,0,0,0-.55.55v2.069l-1.041,2.083A.549.549,0,0,0,96,35.24V46.234a.549.549,0,0,0,.058.246l1.1,2.2a.55.55,0,0,0,.492.3h8.8a.55.55,0,0,0,.492-.3l.01-.021a2.195,2.195,0,0,0,2.858-.494,3.2,3.2,0,0,0,4.275,0,2.2,2.2,0,0,0,3.909-1.381c0-.011,0-.023,0-.034l-.546-8.739.542-3.792a.548.548,0,0,0,0-.078h0v-9.2a2.735,2.735,0,0,0-.5-1.576L114.646,19.3h.044a.55.55,0,0,0,.55-.55v-1.1A1.651,1.651,0,0,0,113.591,16h-3.3a1.651,1.651,0,0,0-1.649,1.649v1.1a.55.55,0,0,0,.55.55h.044l-2.845,4.064A2.735,2.735,0,0,0,105.895,24.939ZM97.1,45.684V35.789h4.459a12.406,12.406,0,0,1,1.038,4.4,10.031,10.031,0,0,1-1.654,5.5Zm5.635-9.895h1.022a12.406,12.406,0,0,1,1.038,4.4,10.031,10.031,0,0,1-1.654,5.5h-.94a10.547,10.547,0,0,0,1.494-5.5A12.582,12.582,0,0,0,102.735,35.789Zm3.37,12.094H97.989l-.55-1.1h9.215Zm9.685,0a1.1,1.1,0,0,1-1.1-1.1.55.55,0,0,0-1.1,0c0,.6-.755,1.1-1.649,1.1s-1.649-.5-1.649-1.1a.55.55,0,1,0-1.1,0,1.1,1.1,0,0,1-1.752.885l.594-1.189a.549.549,0,0,0,.058-.246V35.24a.549.549,0,0,0-.058-.246l-.152-.3H116.8l-.46,3.221a.539.539,0,0,0,0,.112l.549,8.777A1.1,1.1,0,0,1,115.789,47.883Zm-6.047-30.234a.55.55,0,0,1,.55-.55h3.3a.55.55,0,0,1,.55.55v.55h-4.4Zm-2.749,7.29a1.641,1.641,0,0,1,.3-.946l3.286-4.695H113.3l3.286,4.695a1.641,1.641,0,0,1,.3.946v.956h-9.895Zm0,5.9V26.994h9.895v6.6h-9.555l-.34-.68Zm0,14.842H104.4a10.547,10.547,0,0,0,1.494-5.5,12.582,12.582,0,0,0-.961-4.4h2.061ZM97.439,34.69l.55-1.1h5.157a.55.55,0,1,0,0-1.1H98.2v-1.1h7.7v1.1h-.55a.55.55,0,0,0,0,1.1h.76l.55,1.1Z" transform="translate(-96 -16)" fill="#727272"/>
</svg>
