<svg id="stock" xmlns="http://www.w3.org/2000/svg" width="30.755" height="27.798" viewBox="0 0 30.755 27.798">
  <path id="Caminho_1306" data-name="Caminho 1306" d="M271.657,159.813h2.366a.887.887,0,1,0,0-1.774h-2.366a.887.887,0,0,0,0,1.774Zm0,0" transform="translate(-254.504 -148.576)" fill="#727272"/>
  <path id="Caminho_1307" data-name="Caminho 1307" d="M29.867,13.512H23.361V1.387A.887.887,0,0,0,22.474.5H8.279a.887.887,0,0,0-.887.887V13.512H.886A.887.887,0,0,0,0,14.4V27.411a.887.887,0,0,0,.887.887H29.867a.887.887,0,0,0,.887-.887V14.4a.887.887,0,0,0-.887-.887ZM21,15.286h2.957v4.14H21ZM16.855,2.274v4.14H13.9V2.274Zm-7.689,0h2.957V7.3a.887.887,0,0,0,.887.887h4.731a.887.887,0,0,0,.887-.887V2.274h2.957V13.512H9.166Zm.3,13.012v4.14H6.5v-4.14Zm-7.689,0H4.73v5.028a.887.887,0,0,0,.887.887h4.732a.887.887,0,0,0,.887-.887V15.286h3.253V26.523H1.773ZM28.98,26.523H16.264V15.286h2.957v5.028a.887.887,0,0,0,.887.887H24.84a.887.887,0,0,0,.887-.887V15.286H28.98Zm0,0" transform="translate(0.001 -0.499)" fill="#727272"/>
  <path id="Caminho_1308" data-name="Caminho 1308" d="M394.735,374.652a.887.887,0,0,0,0,1.774H397.1a.887.887,0,0,0,0-1.774Zm0,0" transform="translate(-370.189 -352.177)" fill="#727272"/>
  <path id="Caminho_1309" data-name="Caminho 1309" d="M150.945,374.652h-2.366a.887.887,0,0,0,0,1.774h2.366a.887.887,0,0,0,0-1.774Zm0,0" transform="translate(-138.82 -352.177)" fill="#727272"/>
</svg>
