<svg id="telephone" xmlns="http://www.w3.org/2000/svg" width="33.662" height="33.511" viewBox="0 0 33.662 33.511">
  <path id="Caminho_1329" data-name="Caminho 1329" d="M32.693,25.7l-4.865-4.867a3.467,3.467,0,0,0-2.463-1.008A3.636,3.636,0,0,0,22.778,20.9L20.884,22.8a23.062,23.062,0,0,1-5.458-3.974,23.075,23.075,0,0,1-3.976-5.459l1.9-1.894A3.578,3.578,0,0,0,13.41,6.42L8.546,1.555A3.452,3.452,0,0,0,6.082.542,3.64,3.64,0,0,0,3.54,1.575a10.417,10.417,0,0,0-3.3,6C-.849,12.921,1.664,18.061,8.921,25.32c8.106,8.1,15.026,8.733,16.954,8.733a6.406,6.406,0,0,0,.708-.032A8.029,8.029,0,0,0,32.7,30.673,3.684,3.684,0,0,0,32.693,25.7Zm-1.614,3.661a5.943,5.943,0,0,1-4.739,2.584,4.653,4.653,0,0,1-.465.018c-1.725,0-7.939-.586-15.477-8.121C3.706,17.149,1.357,12.558,2.291,8A8.216,8.216,0,0,1,4.852,3.2l.062-.046L4.969,3.1a1.568,1.568,0,0,1,1.113-.468,1.378,1.378,0,0,1,.986.4L11.933,7.9a1.488,1.488,0,0,1-.066,2.1L9.724,12.136l-.035.037A1.71,1.71,0,0,0,9.5,14.161,25.376,25.376,0,0,0,13.948,20.3a25.345,25.345,0,0,0,6.123,4.435,1.888,1.888,0,0,0,.9.24,1.67,1.67,0,0,0,1.268-.583l2.012-2.011a1.561,1.561,0,0,1,1.109-.466,1.39,1.39,0,0,1,.988.4l4.862,4.864A1.643,1.643,0,0,1,31.079,29.362Z" transform="translate(0 -0.542)" fill="#727272"/>
  <path id="Caminho_1330" data-name="Caminho 1330" d="M140.729,24.424a9.907,9.907,0,0,1,8.159,8.207,1.044,1.044,0,0,0,1.037.932,1.084,1.084,0,0,0,.114-.006,1.044,1.044,0,0,0,.926-1.151,11.984,11.984,0,0,0-10-10.057,1.044,1.044,0,1,0-.239,2.075Z" transform="translate(-120.335 -19.306)" fill="#727272"/>
  <path id="Caminho_1331" data-name="Caminho 1331" d="M133.721,55.84a6.257,6.257,0,0,1,4.909,4.936,1.044,1.044,0,0,0,1.037.932,1.085,1.085,0,0,0,.114-.006,1.045,1.045,0,0,0,.926-1.151,8.315,8.315,0,0,0-6.747-6.786,1.044,1.044,0,1,0-.239,2.075Z" transform="translate(-114.304 -46.348)" fill="#727272"/>
</svg>
