<svg id="user-profile" xmlns="http://www.w3.org/2000/svg" width="27.029" height="30.559" viewBox="0 0 27.029 30.559">
  <path id="Caminho_33" data-name="Caminho 33" d="M28.588,25.251H25.336a10.262,10.262,0,1,0-20.524,0H1.559a13.515,13.515,0,1,1,27.029,0Z" transform="translate(-1.559 5.308)" fill="#727272"/>
  <path id="Caminho_34" data-name="Caminho 34" d="M13.155,18.419A9.01,9.01,0,0,1,4.386,9.21,9.007,9.007,0,0,1,13.155,0a9.008,9.008,0,0,1,8.772,9.21A9.008,9.008,0,0,1,13.155,18.419Zm0-15.061A5.723,5.723,0,0,0,7.582,9.21a5.723,5.723,0,0,0,5.572,5.852A5.723,5.723,0,0,0,18.729,9.21,5.725,5.725,0,0,0,13.155,3.358Z" transform="translate(0.361 0)" fill="#727272"/>
</svg>
