<svg xmlns="http://www.w3.org/2000/svg" width="33.309" height="27.3" viewBox="0 0 33.309 27.3">
  <g id="wheelbarrow" transform="translate(0 0)">
    <g id="Grupo_673" data-name="Grupo 673" transform="translate(18.027 0)">
      <g id="Grupo_672" data-name="Grupo 672" transform="translate(0 0)">
        <path id="Caminho_1310" data-name="Caminho 1310" d="M291.751,47.715l-3.109-1.235a4.166,4.166,0,0,0-5.41,2.334l-6.138,15.457a5.621,5.621,0,0,1,1.841.731l6.138-15.457a2.185,2.185,0,0,1,2.837-1.224l3.109,1.235a.991.991,0,0,0,.731-1.841Z" transform="translate(-277.094 -46.185)" fill="#727272"/>
      </g>
    </g>
    <g id="Grupo_675" data-name="Grupo 675" transform="translate(13.219 19.954)">
      <g id="Grupo_674" data-name="Grupo 674">
        <path id="Caminho_1311" data-name="Caminho 1311" d="M208.226,353.156a3.672,3.672,0,1,0,2.057,4.768A3.676,3.676,0,0,0,208.226,353.156Z" transform="translate(-203.197 -352.896)" fill="#727272"/>
      </g>
    </g>
    <g id="Grupo_677" data-name="Grupo 677" transform="translate(0 6.214)">
      <g id="Grupo_676" data-name="Grupo 676" transform="translate(0 0)">
        <path id="Caminho_1312" data-name="Caminho 1312" d="M18.353,146.518a.991.991,0,0,0-.544-.528L7.187,141.771a.991.991,0,0,0-1.286.555l-3.9,9.808-.648-.258a.991.991,0,0,0-.731,1.841l1.465.582a.986.986,0,0,0,.1.048l9.162,3.638a5.725,5.725,0,0,1,.286-.96,5.66,5.66,0,0,1,4.232-3.473l2.493-6.277A.99.99,0,0,0,18.353,146.518Zm-5.442,2.2a.99.99,0,0,1-1.286.555L9.436,148.4a.991.991,0,1,1,.731-1.841l2.188.869A.991.991,0,0,1,12.911,148.714Z" transform="translate(0 -141.701)" fill="#727272"/>
      </g>
    </g>
  </g>
</svg>
